<svg width="619" height="62" viewBox="0 0 619 62" fill="none" xmlns="http://www.w3.org/2000/svg">
<path d="M10.456 52.16C10.456 55.3173 12.5467 56.896 16.728 56.896L16.28 59.52C10.392 59.52 7.448 57.0027 7.448 51.968V37.632C7.448 35.456 6.85067 33.856 5.656 32.832C4.46133 31.808 2.648 31.296 0.216 31.296V28.48C2.648 28.48 4.46133 27.968 5.656 26.944C6.85067 25.8773 7.448 24.2773 7.448 22.144V7.872C7.448 5.39733 8.17333 3.52 9.624 2.24C11.0747 0.91733 13.2933 0.255997 16.28 0.255997L16.728 2.88C14.6373 2.88 13.0587 3.28533 11.992 4.096C10.968 4.90666 10.456 6.08 10.456 7.616V22.4C10.456 24.3627 9.92267 25.984 8.856 27.264C7.78933 28.544 6.25333 29.4187 4.248 29.888C6.25333 30.3573 7.78933 31.232 8.856 32.512C9.92267 33.792 10.456 35.4133 10.456 37.376V52.16ZM173.59 35.616C175.846 35.616 177.598 36.192 178.846 37.344C180.142 38.496 180.79 40.104 180.79 42.168C180.79 44.184 180.142 45.768 178.846 46.92C177.598 48.072 175.846 48.648 173.59 48.648C171.334 48.648 169.558 48.072 168.262 46.92C167.014 45.768 166.39 44.184 166.39 42.168C166.39 40.104 167.014 38.496 168.262 37.344C169.558 36.192 171.334 35.616 173.59 35.616ZM610.884 22.144C610.884 24.2773 611.482 25.8773 612.676 26.944C613.871 27.968 615.684 28.48 618.116 28.48V31.296C615.684 31.296 613.871 31.808 612.676 32.832C611.482 33.856 610.884 35.456 610.884 37.632V51.968C610.884 57.0027 607.94 59.52 602.052 59.52L601.604 56.896C605.786 56.896 607.876 55.3173 607.876 52.16V37.376C607.876 35.4133 608.41 33.792 609.476 32.512C610.543 31.232 612.058 30.3573 614.02 29.888C612.058 29.4187 610.543 28.544 609.476 27.264C608.41 25.9413 607.876 24.32 607.876 22.4V7.616C607.876 6.08 607.343 4.90666 606.276 4.096C605.252 3.28533 603.695 2.88 601.604 2.88L602.052 0.255997C605.039 0.255997 607.258 0.91733 608.708 2.24C610.159 3.52 610.884 5.39733 610.884 7.872V22.144Z" fill="#56CCF2"/>
<path d="M49.5355 15.36C53.6315 15.36 56.8528 16.832 59.1995 19.776C61.5462 22.72 62.7195 26.8373 62.7195 32.128C62.7195 37.3333 61.5675 41.3867 59.2635 44.288C56.9595 47.1893 53.7168 48.64 49.5355 48.64C47.0182 48.64 44.8208 47.9787 42.9435 46.656C41.1088 45.2907 39.7435 43.4773 38.8475 41.216L38.5275 48H28.9915V2.432H39.8715V21.376C40.7675 19.4987 42.0262 18.0267 43.6475 16.96C45.3115 15.8933 47.2742 15.36 49.5355 15.36ZM45.7595 40.64C47.6795 40.64 49.1515 39.936 50.1755 38.528C51.2422 37.12 51.7755 34.944 51.7755 32C51.7755 29.056 51.2422 26.88 50.1755 25.472C49.1515 24.064 47.6795 23.36 45.7595 23.36C43.8822 23.36 42.4315 24.0853 41.4075 25.536C40.3835 26.9867 39.8715 29.0347 39.8715 31.68V32.32C39.8715 35.0507 40.3835 37.12 41.4075 38.528C42.4742 39.936 43.9248 40.64 45.7595 40.64ZM79.931 36.928C79.931 38.3787 80.1443 39.4027 80.571 40C80.9977 40.5973 81.7657 40.896 82.875 40.896C83.899 40.896 84.987 40.704 86.139 40.32L85.435 47.04C84.667 47.5093 83.6643 47.8933 82.427 48.192C81.1897 48.4907 79.9737 48.64 78.779 48.64C75.3657 48.64 72.891 47.8507 71.355 46.272C69.819 44.6507 69.051 42.0693 69.051 38.528V2.432H79.931V36.928ZM121.989 16V48H112.261L111.941 42.048C109.935 46.4427 106.245 48.64 100.869 48.64C97.4552 48.64 94.7672 47.744 92.8045 45.952C90.8845 44.1173 89.9245 41.2587 89.9245 37.376V16H100.805V34.624C100.805 36.7147 101.167 38.1867 101.893 39.04C102.618 39.8933 103.727 40.32 105.221 40.32C107.013 40.32 108.442 39.7227 109.509 38.528C110.575 37.2907 111.109 35.4347 111.109 32.96V16H121.989ZM160.972 31.552C160.972 33.0027 160.865 34.1973 160.652 35.136H138.828C139.169 37.1413 139.895 38.6133 141.004 39.552C142.156 40.4907 143.671 40.96 145.548 40.96C147.127 40.96 148.407 40.6613 149.388 40.064C150.412 39.4667 151.095 38.592 151.436 37.44L160.268 40.256C159.372 42.9867 157.623 45.0773 155.02 46.528C152.46 47.936 149.303 48.64 145.548 48.64C139.959 48.64 135.671 47.1893 132.684 44.288C129.74 41.3867 128.268 37.2907 128.268 32C128.268 26.7093 129.719 22.6133 132.62 19.712C135.521 16.8107 139.639 15.36 144.972 15.36C150.135 15.36 154.081 16.7893 156.812 19.648C159.585 22.464 160.972 26.432 160.972 31.552ZM144.908 22.976C141.452 22.976 139.404 25.0667 138.764 29.248H150.796C150.284 25.0667 148.321 22.976 144.908 22.976ZM220.385 2.432V48H210.593L210.209 41.92C209.27 44.0107 207.883 45.6533 206.049 46.848C204.257 48.0427 202.166 48.64 199.777 48.64C195.638 48.64 192.395 47.1893 190.049 44.288C187.745 41.3867 186.593 37.3333 186.593 32.128C186.593 26.8373 187.766 22.72 190.113 19.776C192.459 16.832 195.702 15.36 199.841 15.36C202.102 15.36 204.043 15.8933 205.665 16.96C207.286 18.0267 208.566 19.4987 209.505 21.376V2.432H220.385ZM203.553 40.64C205.302 40.64 206.689 40.0213 207.713 38.784C208.779 37.504 209.377 35.6693 209.505 33.28V30.72C209.377 28.3733 208.779 26.56 207.713 25.28C206.689 24 205.302 23.36 203.553 23.36C201.633 23.36 200.139 24.064 199.073 25.472C198.049 26.88 197.537 29.056 197.537 32C197.537 34.944 198.049 37.12 199.073 38.528C200.139 39.936 201.633 40.64 203.553 40.64ZM243.484 15.36C248.818 15.36 252.956 16.832 255.9 19.776C258.887 22.6773 260.38 26.752 260.38 32C260.38 37.248 258.887 41.344 255.9 44.288C252.956 47.1893 248.818 48.64 243.484 48.64C238.151 48.64 233.991 47.1893 231.004 44.288C228.06 41.344 226.588 37.248 226.588 32C226.588 26.752 228.06 22.6773 231.004 19.776C233.991 16.832 238.151 15.36 243.484 15.36ZM243.484 23.104C241.436 23.104 239.922 23.808 238.94 25.216C237.959 26.624 237.468 28.8853 237.468 32C237.468 35.1147 237.959 37.376 238.94 38.784C239.922 40.192 241.436 40.896 243.484 40.896C245.532 40.896 247.047 40.192 248.028 38.784C249.01 37.376 249.5 35.1147 249.5 32C249.5 28.8853 249.01 26.624 248.028 25.216C247.047 23.808 245.532 23.104 243.484 23.104ZM289.606 46.208C288.54 46.9333 287.174 47.5307 285.51 48C283.889 48.4267 282.246 48.64 280.582 48.64C276.785 48.64 273.884 47.8293 271.878 46.208C269.873 44.5867 268.849 41.984 268.806 38.4V23.744H263.302V16H268.806V8.832L279.686 5.824V16H289.286V23.744H279.686V36.608C279.686 39.4667 281.094 40.896 283.91 40.896C285.66 40.896 287.196 40.4267 288.518 39.488L289.606 46.208ZM343.411 41.792C344.222 41.792 344.883 41.7067 345.395 41.536L344.563 47.616C343.326 48.2987 341.875 48.64 340.211 48.64C335.603 48.64 332.851 46.9973 331.955 43.712C330.035 46.9973 326.238 48.64 320.563 48.64C317.363 48.64 314.91 47.9573 313.203 46.592C311.497 45.2267 310.643 43.2427 310.643 40.64C310.643 37.9093 311.603 35.712 313.523 34.048C315.486 32.3413 318.686 31.04 323.123 30.144L330.355 28.736V27.584C330.355 26.1333 329.95 24.9813 329.139 24.128C328.329 23.2747 327.219 22.848 325.811 22.848C324.19 22.848 322.867 23.232 321.843 24C320.819 24.768 320.158 26.0267 319.859 27.776L311.027 25.216C311.582 22.1013 313.118 19.6907 315.635 17.984C318.153 16.2347 321.545 15.36 325.811 15.36C330.803 15.36 334.601 16.384 337.203 18.432C339.806 20.48 341.107 23.552 341.107 27.648V39.296C341.107 40.96 341.875 41.792 343.411 41.792ZM324.531 41.6C326.025 41.6 327.369 41.1947 328.563 40.384C329.758 39.5307 330.355 38.4213 330.355 37.056V34.304L325.171 35.52C323.806 35.8613 322.825 36.288 322.227 36.8C321.673 37.2693 321.395 37.952 321.395 38.848C321.395 39.744 321.673 40.4267 322.227 40.896C322.782 41.3653 323.55 41.6 324.531 41.6ZM364.733 15.36C369.554 15.36 373.181 16.2773 375.613 18.112C378.045 19.9467 379.559 22.336 380.157 25.28L370.045 28.608C369.618 24.9387 367.975 23.104 365.117 23.104C360.893 23.104 358.781 26.112 358.781 32.128C358.781 37.9733 360.893 40.896 365.117 40.896C368.146 40.896 369.917 39.168 370.429 35.712L380.221 38.848C379.751 41.7493 378.194 44.1173 375.549 45.952C372.946 47.744 369.49 48.64 365.181 48.64C359.634 48.64 355.367 47.1893 352.381 44.288C349.394 41.3867 347.901 37.2907 347.901 32C347.901 26.752 349.373 22.6773 352.317 19.776C355.303 16.832 359.442 15.36 364.733 15.36ZM416.911 41.792C417.722 41.792 418.383 41.7067 418.895 41.536L418.063 47.616C416.826 48.2987 415.375 48.64 413.711 48.64C409.103 48.64 406.351 46.9973 405.455 43.712C403.535 46.9973 399.738 48.64 394.063 48.64C390.863 48.64 388.41 47.9573 386.703 46.592C384.997 45.2267 384.143 43.2427 384.143 40.64C384.143 37.9093 385.103 35.712 387.023 34.048C388.986 32.3413 392.186 31.04 396.623 30.144L403.855 28.736V27.584C403.855 26.1333 403.45 24.9813 402.639 24.128C401.829 23.2747 400.719 22.848 399.311 22.848C397.69 22.848 396.367 23.232 395.343 24C394.319 24.768 393.658 26.0267 393.359 27.776L384.527 25.216C385.082 22.1013 386.618 19.6907 389.135 17.984C391.653 16.2347 395.045 15.36 399.311 15.36C404.303 15.36 408.101 16.384 410.703 18.432C413.306 20.48 414.607 23.552 414.607 27.648V39.296C414.607 40.96 415.375 41.792 416.911 41.792ZM398.031 41.6C399.525 41.6 400.869 41.1947 402.063 40.384C403.258 39.5307 403.855 38.4213 403.855 37.056V34.304L398.671 35.52C397.306 35.8613 396.325 36.288 395.727 36.8C395.173 37.2693 394.895 37.952 394.895 38.848C394.895 39.744 395.173 40.4267 395.727 40.896C396.282 41.3653 397.05 41.6 398.031 41.6ZM455.385 2.432V48H445.593L445.209 41.92C444.27 44.0107 442.883 45.6533 441.049 46.848C439.257 48.0427 437.166 48.64 434.777 48.64C430.638 48.64 427.395 47.1893 425.049 44.288C422.745 41.3867 421.593 37.3333 421.593 32.128C421.593 26.8373 422.766 22.72 425.113 19.776C427.459 16.832 430.702 15.36 434.841 15.36C437.102 15.36 439.043 15.8933 440.665 16.96C442.286 18.0267 443.566 19.4987 444.505 21.376V2.432H455.385ZM438.553 40.64C440.302 40.64 441.689 40.0213 442.713 38.784C443.779 37.504 444.377 35.6693 444.505 33.28V30.72C444.377 28.3733 443.779 26.56 442.713 25.28C441.689 24 440.302 23.36 438.553 23.36C436.633 23.36 435.139 24.064 434.073 25.472C433.049 26.88 432.537 29.056 432.537 32C432.537 34.944 433.049 37.12 434.073 38.528C435.139 39.936 436.633 40.64 438.553 40.64ZM494.292 31.552C494.292 33.0027 494.186 34.1973 493.972 35.136H472.148C472.49 37.1413 473.215 38.6133 474.324 39.552C475.476 40.4907 476.991 40.96 478.868 40.96C480.447 40.96 481.727 40.6613 482.708 40.064C483.732 39.4667 484.415 38.592 484.756 37.44L493.588 40.256C492.692 42.9867 490.943 45.0773 488.34 46.528C485.78 47.936 482.623 48.64 478.868 48.64C473.279 48.64 468.991 47.1893 466.004 44.288C463.06 41.3867 461.588 37.2907 461.588 32C461.588 26.7093 463.039 22.6133 465.94 19.712C468.842 16.8107 472.959 15.36 478.292 15.36C483.455 15.36 487.402 16.7893 490.132 19.648C492.906 22.464 494.292 26.432 494.292 31.552ZM478.228 22.976C474.772 22.976 472.724 25.0667 472.084 29.248H484.116C483.604 25.0667 481.642 22.976 478.228 22.976ZM542.038 15.36C545.281 15.36 547.905 16.3413 549.91 18.304C551.958 20.2667 552.982 23.0613 552.982 26.688V48H542.102V29.184C542.102 25.5147 540.652 23.68 537.75 23.68C536.044 23.68 534.678 24.2987 533.654 25.536C532.63 26.7733 532.118 28.5653 532.118 30.912V48H521.238V29.184C521.238 25.5147 519.788 23.68 516.886 23.68C515.265 23.68 513.921 24.2987 512.854 25.536C511.788 26.7733 511.254 28.6293 511.254 31.104V48H500.374V16H510.102L510.422 22.144C511.446 19.9253 512.876 18.24 514.71 17.088C516.545 15.936 518.7 15.36 521.174 15.36C523.606 15.36 525.697 15.9147 527.446 17.024C529.238 18.1333 530.518 19.7333 531.286 21.824C532.31 19.7333 533.761 18.1333 535.638 17.024C537.558 15.9147 539.692 15.36 542.038 15.36ZM581.488 48C580.294 51.4133 578.992 54.1227 577.584 56.128C576.176 58.1333 574.512 59.5627 572.592 60.416C570.672 61.312 568.347 61.76 565.616 61.76C561.99 61.76 559.088 60.9707 556.912 59.392L559.216 52.096C559.899 52.736 560.646 53.1627 561.456 53.376C562.31 53.632 563.398 53.76 564.72 53.76C566.043 53.76 567.088 53.5253 567.856 53.056C568.624 52.6293 569.243 51.84 569.712 50.688L570.48 48.704L566.768 40L557.232 16H569.2L574.128 34.24L575.664 41.024L577.392 33.984L582.32 16H593.2L581.488 48Z" fill="#FFF"/>
</svg>
